<svg width="16" height="10" viewBox="0 0 16 10" fill="none" xmlns="http://www.w3.org/2000/svg">
<path fill-rule="evenodd" clip-rule="evenodd" d="M10.8598 0.694796C10.9217 0.632739 10.9953 0.583503 11.0762 0.549909C11.1572 0.516315 11.244 0.499023 11.3316 0.499023C11.4193 0.499023 11.5061 0.516315 11.587 0.549909C11.668 0.583503 11.7415 0.632739 11.8034 0.694796L15.8017 4.69306C15.8637 4.75496 15.913 4.8285 15.9466 4.90945C15.9802 4.99041 15.9975 5.0772 15.9975 5.16486C15.9975 5.25251 15.9802 5.3393 15.9466 5.42026C15.913 5.50121 15.8637 5.57475 15.8017 5.63665L11.8034 9.63491C11.6783 9.76004 11.5086 9.83034 11.3316 9.83034C11.1547 9.83034 10.985 9.76004 10.8598 9.63491C10.7347 9.50979 10.6644 9.34008 10.6644 9.16312C10.6644 8.98616 10.7347 8.81645 10.8598 8.69132L14.3876 5.16486L10.8598 1.63839C10.7978 1.57649 10.7485 1.50295 10.7149 1.42199C10.6814 1.34103 10.6641 1.25424 10.6641 1.16659C10.6641 1.07894 10.6814 0.992149 10.7149 0.911191C10.7485 0.830233 10.7978 0.756697 10.8598 0.694796Z" fill="#784F33"/>
<path fill-rule="evenodd" clip-rule="evenodd" d="M0 5.1654C0 4.98867 0.0702075 4.81917 0.195178 4.6942C0.320147 4.56923 0.489643 4.49902 0.666377 4.49902H14.6603C14.837 4.49902 15.0065 4.56923 15.1315 4.6942C15.2565 4.81917 15.3267 4.98867 15.3267 5.1654C15.3267 5.34213 15.2565 5.51163 15.1315 5.6366C15.0065 5.76157 14.837 5.83178 14.6603 5.83178H0.666377C0.489643 5.83178 0.320147 5.76157 0.195178 5.6366C0.0702075 5.51163 0 5.34213 0 5.1654Z" fill="#784F33"/>
</svg>
