<svg width="0" height="0" class="hidden">
  <symbol xmlns="http://www.w3.org/2000/svg" viewBox="0 0 24 14" id="header-burger">
    <g clip-path="url(#a)">
      <path d="M.571 0h22.857v2.286H.571V0Zm5.715 5.714h17.142V8H6.286V5.714Zm7.142 5.715h10v2.285h-10V11.43Z"></path>
    </g>
    <defs>
      <clipPath id="a">
        <path  d="M0 0h24v13.714H0z"></path>
      </clipPath>
    </defs>
  </symbol>
  <symbol xmlns="http://www.w3.org/2000/svg" viewBox="0 0 20 20" id="header-glass">
    <g clip-path="url(#a)">
      <path fill-rule="evenodd" clip-rule="evenodd" d="m11.46 12.319 4.304 4.303a.807.807 0 0 1-1.142 1.141L10.32 13.46a6.4 6.4 0 1 1 1.14-1.14h.001Zm-5.06.88a4.8 4.8 0 1 0 0-9.6 4.8 4.8 0 0 0 0 9.6Z" ></path>
    </g>
    <defs>
      <clipPath id="a">
        <path d="M0 0h20.001v20.001H0z"></path>
      </clipPath>
    </defs>
  </symbol>
  <symbol xmlns="http://www.w3.org/2000/svg" viewBox="0 0 16 15" id="header-cart">
    <g clip-path="url(#a)">
      <path d="M5.333 14.934a1.067 1.067 0 1 0 0-2.134 1.067 1.067 0 0 0 0 2.134ZM12.8 14.934a1.067 1.067 0 1 0 0-2.134 1.067 1.067 0 0 0 0 2.134ZM14.933 2.667H3.104L2.667.427A.533.533 0 0 0 2.133 0H0v1.067h1.696l2.037 10.24a.533.533 0 0 0 .534.426h9.6v-1.066H4.704l-.437-2.134h9.6a.533.533 0 0 0 .533-.416l1.067-4.8a.535.535 0 0 0-.534-.65Zm-1.493 4.8H4.064l-.747-3.734h10.95l-.827 3.734Z"></path>
    </g>
    <defs>
      <clipPath id="a">
        <path d="M0 0h16v14.933H0z"></path>
      </clipPath>
    </defs>
  </symbol>
  <symbol xmlns="http://www.w3.org/2000/svg" viewBox="0 0 48 48" id="hero-doc">
    <path d="M16.256 9.44H7.504c-.81 0-1.466.643-1.466 1.436 0 .792.657 1.435 1.466 1.435h8.752c.81 0 1.467-.643 1.467-1.435 0-.793-.657-1.436-1.467-1.436ZM16.256 15.183H7.504c-.81 0-1.466.642-1.466 1.435s.657 1.436 1.466 1.436h8.752c.81 0 1.467-.643 1.467-1.436 0-.793-.657-1.435-1.467-1.435ZM16.256 20.925H7.504c-.81 0-1.466.642-1.466 1.435s.657 1.436 1.466 1.436h8.752c.81 0 1.467-.643 1.467-1.436 0-.793-.657-1.435-1.467-1.435ZM16.256 26.668H7.504c-.81 0-1.466.642-1.466 1.435s.657 1.436 1.466 1.436h8.752c.81 0 1.467-.643 1.467-1.436 0-.793-.657-1.436-1.467-1.436ZM16.256 32.506H7.504c-.81 0-1.466.643-1.466 1.436 0 .793.657 1.435 1.466 1.435h8.752c.81 0 1.467-.642 1.467-1.435s-.657-1.436-1.467-1.436ZM21.18 12.311h8.752c.81 0 1.466-.643 1.466-1.435 0-.793-.656-1.436-1.466-1.436H21.18c-.81 0-1.466.643-1.466 1.436 0 .792.657 1.435 1.466 1.435ZM21.18 18.054h8.752c.81 0 1.466-.643 1.466-1.436 0-.793-.656-1.435-1.466-1.435H21.18c-.81 0-1.466.642-1.466 1.435s.657 1.436 1.466 1.436ZM26.862 22.36c0-.793-.657-1.435-1.467-1.435H21.18c-.81 0-1.466.642-1.466 1.435s.657 1.436 1.466 1.436h4.215c.81 0 1.467-.643 1.467-1.436ZM40.753 33.112a1.488 1.488 0 0 0-2.061.221l-3.777 4.61-2.338-1.659a1.487 1.487 0 0 0-2.048.32 1.417 1.417 0 0 0 .327 2.005l3.469 2.46c.26.184.56.274.86.274.43 0 .855-.186 1.144-.538l4.65-5.675a1.415 1.415 0 0 0-.226-2.018Z"></path>
    <path d="M44.46 28.705a12.19 12.19 0 0 0-7.024-3.455V5.78C37.436 2.594 34.786 0 31.53 0H5.906C2.65 0 0 2.594 0 5.781v33.255c0 3.188 2.65 5.782 5.906 5.782h20.609C28.835 47.483 32.169 49 35.776 49c6.715 0 12.179-5.352 12.179-11.93 0-3.15-1.241-6.12-3.495-8.365ZM2.933 39.035V5.782c0-1.604 1.334-2.91 2.973-2.91H31.53c1.64 0 2.973 1.306 2.973 2.91v19.423c-6.12.626-10.905 5.708-10.905 11.866 0 1.706.363 3.356 1.06 4.876H5.907c-1.64 0-2.973-1.305-2.973-2.91Zm32.843 7.094c-2.928 0-5.62-1.316-7.387-3.611a8.862 8.862 0 0 1-1.859-5.448c0-4.996 4.148-9.06 9.246-9.06l.145.002h.023a9.283 9.283 0 0 1 6.424 2.706 8.913 8.913 0 0 1 2.654 6.352c0 4.995-4.148 9.059-9.246 9.059Z"></path>
  </symbol>
  <symbol xmlns="http://www.w3.org/2000/svg" viewBox="0 0 43 36" id="hero-justice">
    <path d="M23.322 32.09H19.68a.617.617 0 0 1-.433-.177.596.596 0 0 1-.18-.425V2.43c0-.634.257-1.243.713-1.691a2.456 2.456 0 0 1 1.721-.7c.646 0 1.265.251 1.721.7.457.448.713 1.057.713 1.691v29.06c0 .16-.064.312-.18.425a.617.617 0 0 1-.432.176Zm-3.031-1.204h2.419V2.43c0-.315-.127-.617-.354-.84a1.22 1.22 0 0 0-1.71 0 1.179 1.179 0 0 0-.355.84v28.458ZM6.746 8.103H4.645a1.919 1.919 0 0 1-1.323-.56c-.35-.349-.546-.82-.546-1.31 0-.49.196-.96.546-1.31.35-.35.824-.55 1.323-.56h1.803c.163 0 .318.064.433.177a.596.596 0 0 1 0 .85.618.618 0 0 1-.433.177H4.645a.684.684 0 0 0-.467.202.66.66 0 0 0 0 .929c.123.124.29.196.467.202h2.101c.163 0 .318.063.433.176a.596.596 0 0 1 0 .85.618.618 0 0 1-.433.177Z"></path>
    <path d="M19.678 8.103H10.45a.618.618 0 0 1-.433-.176.596.596 0 0 1 0-.851.618.618 0 0 1 .433-.176h8.616V5.567h-8.318a.618.618 0 0 1-.433-.176.596.596 0 0 1 0-.851.618.618 0 0 1 .433-.176h8.93c.163 0 .319.063.433.176.115.113.18.266.18.425v2.536c0 .16-.065.313-.18.426a.618.618 0 0 1-.433.176ZM32.417 8.103h-9.095a.618.618 0 0 1-.433-.176.596.596 0 0 1-.179-.426V4.965c0-.16.064-.312.18-.425a.618.618 0 0 1 .432-.176h8.798c.162 0 .318.063.433.176a.596.596 0 0 1 0 .85.618.618 0 0 1-.433.177h-8.186V6.9h8.483c.163 0 .318.063.433.176a.596.596 0 0 1 0 .85.618.618 0 0 1-.433.177ZM38.35 8.103h-2.096a.618.618 0 0 1-.433-.176.596.596 0 0 1 0-.851.618.618 0 0 1 .433-.176h2.095a.684.684 0 0 0 .467-.202.66.66 0 0 0 0-.929.684.684 0 0 0-.467-.202h-1.793a.618.618 0 0 1-.433-.176.596.596 0 0 1 0-.851.618.618 0 0 1 .433-.176h1.793c.499.009.974.21 1.324.56.349.349.545.82.545 1.31 0 .49-.196.96-.546 1.31-.349.35-.824.55-1.323.559ZM29.253 35.962H13.747a.621.621 0 0 1-.482-.231.597.597 0 0 1-.112-.516 5.431 5.431 0 0 1 1.846-3.047 5.599 5.599 0 0 1 3.365-1.285h6.272c1.236.048 2.42.5 3.364 1.285a5.431 5.431 0 0 1 1.847 3.047.591.591 0 0 1-.112.516.608.608 0 0 1-.482.23Zm-14.66-1.204h13.813a4.136 4.136 0 0 0-1.475-1.893 4.246 4.246 0 0 0-2.295-.775h-6.272c-.826.03-1.625.3-2.296.775a4.136 4.136 0 0 0-1.475 1.893Z" ></path>
    <path d="M30.911 35.962H12.09a.618.618 0 0 1-.433-.176.597.597 0 0 1 0-.851.618.618 0 0 1 .433-.176H30.91c.163 0 .319.063.433.176a.596.596 0 0 1 0 .85.618.618 0 0 1-.433.177ZM42.313 23.188H26.494a.62.62 0 0 1-.515-.276.594.594 0 0 1-.042-.575l6.721-14.544a.602.602 0 0 1 .343-.315.622.622 0 0 1 .663.152.601.601 0 0 1 .164.432.594.594 0 0 1-.055.229l-6.329 13.694h13.917L35.038 8.29a.592.592 0 0 1 .11-.66.612.612 0 0 1 .427-.19.621.621 0 0 1 .439.162.602.602 0 0 1 .14.19l6.714 14.545a.593.593 0 0 1-.263.776.62.62 0 0 1-.291.074Z"></path>
    <path d="M34.467 30.863h-.128c-4.901 0-8.46-3.48-8.46-8.276 0-.16.065-.312.18-.425a.617.617 0 0 1 .433-.176h15.821c.163 0 .319.063.433.176.115.113.18.266.18.425 0 4.799-3.558 8.276-8.46 8.276Zm-7.341-7.674c.273 3.84 3.162 6.47 7.213 6.47h.128c4.051 0 6.94-2.63 7.213-6.47H27.126ZM34.404 8.96a3.047 3.047 0 0 1-1.673-.497 2.969 2.969 0 0 1-1.108-1.328 2.91 2.91 0 0 1-.172-1.709c.116-.574.403-1.1.824-1.514.42-.414.957-.696 1.541-.81a3.058 3.058 0 0 1 1.739.169 3 3 0 0 1 1.35 1.09c.331.486.508 1.058.507 1.643a2.935 2.935 0 0 1-.882 2.09 3.04 3.04 0 0 1-2.126.867Zm0-4.71c-.354 0-.699.102-.992.295a1.761 1.761 0 0 0-.658.787 1.727 1.727 0 0 0 .387 1.912 1.814 1.814 0 0 0 1.945.38c.326-.132.605-.357.801-.646a1.734 1.734 0 0 0-.222-2.214 1.803 1.803 0 0 0-1.261-.515ZM16.505 23.188H.686a.62.62 0 0 1-.514-.276.594.594 0 0 1-.043-.574L6.852 7.793a.608.608 0 0 1 .342-.314.622.622 0 0 1 .469.015.606.606 0 0 1 .32.337.592.592 0 0 1-.016.46L1.64 21.985h13.916L9.232 8.291a.593.593 0 0 1 .3-.808.621.621 0 0 1 .677.115.601.601 0 0 1 .138.196l6.715 14.544a.593.593 0 0 1-.264.777.62.62 0 0 1-.293.073Z" ></path>
    <path d="M8.66 30.863h-.127c-4.9 0-8.459-3.477-8.459-8.276 0-.16.065-.312.18-.425a.617.617 0 0 1 .432-.176h15.822c.162 0 .318.063.433.176.114.113.179.266.179.425 0 4.799-3.558 8.276-8.46 8.276Zm-7.34-7.674c.272 3.84 3.162 6.47 7.213 6.47h.127c4.052 0 6.941-2.63 7.214-6.47H1.32ZM8.597 8.96a3.047 3.047 0 0 1-1.672-.498 2.97 2.97 0 0 1-1.108-1.327 2.91 2.91 0 0 1-.171-1.71c.116-.573.403-1.1.824-1.514.42-.413.957-.695 1.54-.809a3.058 3.058 0 0 1 1.74.169c.55.224 1.02.603 1.35 1.09.33.486.507 1.058.507 1.643-.001.784-.319 1.535-.883 2.09a3.04 3.04 0 0 1-2.127.867Zm0-4.71c-.353 0-.698.102-.991.295a1.761 1.761 0 0 0-.658.787 1.726 1.726 0 0 0 .387 1.912 1.814 1.814 0 0 0 1.945.38c.327-.132.605-.357.801-.646a1.733 1.733 0 0 0-.222-2.214 1.803 1.803 0 0 0-1.262-.515Z"></path>
  </symbol>
  <symbol xmlns="http://www.w3.org/2000/svg" viewBox="0 0 44 44" id="hero-hammer">
    <path d="M10.121 14.983A.86.86 0 1 0 8.906 16.2a.86.86 0 0 0 1.215-1.217ZM21.76 38.476a3.011 3.011 0 0 0-2.424-4.79H4.725c-.803 0-1.559.313-2.126.881a2.988 2.988 0 0 0-.881 2.127c0 .666.218 1.282.585 1.78A4.3 4.3 0 0 0 0 42.28v.86c0 .474.385.859.86.859h22.342a.86.86 0 0 0 .86-.86v-.86a4.3 4.3 0 0 0-2.303-3.803ZM3.814 35.782a1.28 1.28 0 0 1 .911-.377h14.61a1.29 1.29 0 0 1 .91 2.2 1.28 1.28 0 0 1-.91.378H4.725a1.29 1.29 0 0 1-.911-2.2ZM1.719 42.28a2.581 2.581 0 0 1 2.578-2.578h15.468a2.581 2.581 0 0 1 2.578 2.578H1.719Z" ></path>
    <path d="M43.2 36.104a5.41 5.41 0 0 0-1.035-1.188l-4.015-3.503a.871.871 0 0 0-.342-.298l-2.428-2.118-11.24-9.804c.46-.481.713-1.11.713-1.78a2.562 2.562 0 0 0-1.468-2.325l1.04-1.04a3.427 3.427 0 0 0 3.318-.888 3.415 3.415 0 0 0 1.007-2.43c0-.919-.357-1.782-1.007-2.431l-7.291-7.292A3.415 3.415 0 0 0 18.02 0a3.439 3.439 0 0 0-3.319 4.326L4.327 14.7a3.46 3.46 0 0 0-.89-.116c-.918 0-1.78.357-2.43 1.006a3.442 3.442 0 0 0 0 4.862L8.3 27.743c.67.67 1.55 1.005 2.43 1.005.88 0 1.761-.335 2.431-1.005a3.438 3.438 0 0 0 .889-3.318l1.037-1.038c.125.26.294.5.504.71a2.561 2.561 0 0 0 1.823.756 2.56 2.56 0 0 0 1.78-.713l11.97 13.755a.866.866 0 0 0 .165.189l3.567 4.099a5.111 5.111 0 0 0 4.638 1.767c1.618-.224 3.017-1.192 3.837-2.656a5.085 5.085 0 0 0-.17-5.19ZM16.806 2.222a1.707 1.707 0 0 1 1.215-.503c.459 0 .89.179 1.215.503l7.292 7.292c.325.325.504.756.504 1.215a1.72 1.72 0 0 1-2.934 1.215l-7.292-7.291a1.72 1.72 0 0 1 0-2.43Zm-4.861 24.306c-.67.67-1.76.67-2.431 0l-7.292-7.292a1.72 1.72 0 0 1 0-2.43 1.707 1.707 0 0 1 1.215-.503c.46 0 .891.178 1.215.502l7.293 7.293c.67.67.67 1.76 0 2.43Zm3.618-6.048-2.403 2.403-7.292-7.293 9.722-9.722 7.293 7.292-2.408 2.407-.024.023-4.858 4.859-.03.03Zm3.069 1.792-.006.005-.605.606a.854.854 0 0 1-.608.251.854.854 0 0 1-.607-.252.854.854 0 0 1-.01-1.204l4.88-4.881a.862.862 0 0 1 1.207.008.854.854 0 0 1 .252.609c0 .23-.09.445-.252.607l-.602.602-.012.012-3.637 3.637Zm1.78.651 2.51-2.511 10.635 9.275-3.88 3.88-9.266-10.644Zm10.396 11.944 4.047-4.047 1.298 1.132-4.214 4.215-1.131-1.3Zm11.062 5.587c-.554.99-1.492 1.644-2.572 1.793a3.415 3.415 0 0 1-3.094-1.178l-.008-.01-3.127-3.592 4.383-4.383 3.587 3.13.009.007c.268.229.506.503.709.816.65 1.004.695 2.377.113 3.417Z"></path>
    <path d="M16.198 8.906a.86.86 0 0 0-1.215 0l-3.646 3.646a.86.86 0 1 0 1.215 1.215l3.646-3.646a.86.86 0 0 0 0-1.215Z"></path>
  </symbol>
  <symbol xmlns="http://www.w3.org/2000/svg" viewBox="0 0 16 10" id="crimes-arrow-right">
    <path fill-rule="evenodd" clip-rule="evenodd" d="M10.86.695a.667.667 0 0 1 .943 0l3.999 3.998a.667.667 0 0 1 0 .944l-3.999 3.998a.667.667 0 1 1-.943-.944l3.528-3.526-3.528-3.527a.667.667 0 0 1 0-.943Z"></path>
    <path fill-rule="evenodd" clip-rule="evenodd" d="M0 5.165A.666.666 0 0 1 .666 4.5H14.66a.666.666 0 0 1 0 1.333H.666A.666.666 0 0 1 0 5.165Z"></path>
  </symbol>
</svg>