<svg width="0" height="0" class="hidden">

  <symbol fill="none" xmlns="http://www.w3.org/2000/svg" viewBox="0 0 25 24" id="footer-facebook-icon">
    <path d="M23.54 0H1.46C0.929 0 0.5 0.429 0.5 0.96V23.04C0.5 23.571 0.929 24 1.46 24H23.54C24.071 24 24.5 23.571 24.5 23.04V0.96C24.5 0.429 24.071 0 23.54 0ZM20.768 7.005H18.851C17.348 7.005 17.057 7.719 17.057 8.769V11.082H20.645L20.177 14.703H17.057V24H13.316V14.706H10.187V11.082H13.316V8.412C13.316 5.313 15.209 3.624 17.975 3.624C19.301 3.624 20.438 3.723 20.771 3.768V7.005H20.768Z" fill="#335BF5"></path>
  </symbol>

  <symbol fill="none" xmlns="http://www.w3.org/2000/svg" viewBox="0 0 25 24" id="footer-instagram-icon">
    <path d="M12.5016 5.84744C9.09659 5.84744 6.34859 8.59544 6.34859 12.0004C6.34859 15.4054 9.09659 18.1534 12.5016 18.1534C15.9066 18.1534 18.6546 15.4054 18.6546 12.0004C18.6546 8.59544 15.9066 5.84744 12.5016 5.84744ZM12.5016 15.9994C10.2996 15.9994 8.50259 14.2024 8.50259 12.0004C8.50259 9.79844 10.2996 8.00144 12.5016 8.00144C14.7036 8.00144 16.5006 9.79844 16.5006 12.0004C16.5006 14.2024 14.7036 15.9994 12.5016 15.9994ZM18.9066 4.16144C18.1116 4.16144 17.4696 4.80344 17.4696 5.59844C17.4696 6.39344 18.1116 7.03544 18.9066 7.03544C19.7016 7.03544 20.3436 6.39644 20.3436 5.59844C20.3438 5.40966 20.3068 5.22269 20.2347 5.04824C20.1625 4.87379 20.0567 4.71528 19.9232 4.5818C19.7897 4.44831 19.6312 4.34247 19.4568 4.27034C19.2823 4.19821 19.0954 4.1612 18.9066 4.16144ZM24.4956 12.0004C24.4956 10.3444 24.5106 8.70344 24.4176 7.05044C24.3246 5.13044 23.8866 3.42644 22.4826 2.02244C21.0756 0.615437 19.3746 0.180437 17.4546 0.0874372C15.7986 -0.00556279 14.1576 0.00943725 12.5046 0.00943725C10.8486 0.00943725 9.20759 -0.00556279 7.55459 0.0874372C5.63459 0.180437 3.93059 0.618437 2.52659 2.02244C1.11959 3.42944 0.684588 5.13044 0.591588 7.05044C0.498588 8.70644 0.513588 10.3474 0.513588 12.0004C0.513588 13.6534 0.498588 15.2974 0.591588 16.9504C0.684588 18.8704 1.12259 20.5744 2.52659 21.9784C3.93359 23.3854 5.63459 23.8204 7.55459 23.9134C9.21059 24.0064 10.8516 23.9914 12.5046 23.9914C14.1606 23.9914 15.8016 24.0064 17.4546 23.9134C19.3746 23.8204 21.0786 23.3824 22.4826 21.9784C23.8896 20.5714 24.3246 18.8704 24.4176 16.9504C24.5136 15.2974 24.4956 13.6564 24.4956 12.0004ZM21.8556 19.0744C21.6366 19.6204 21.3726 20.0284 20.9496 20.4484C20.5266 20.8714 20.1216 21.1354 19.5756 21.3544C17.9976 21.9814 14.2506 21.8404 12.5016 21.8404C10.7526 21.8404 7.00259 21.9814 5.42459 21.3574C4.87859 21.1384 4.47059 20.8744 4.05059 20.4514C3.62759 20.0284 3.36359 19.6234 3.14459 19.0774C2.52059 17.4964 2.66159 13.7494 2.66159 12.0004C2.66159 10.2514 2.52059 6.50144 3.14459 4.92344C3.36359 4.37744 3.62759 3.96944 4.05059 3.54944C4.47359 3.12944 4.87859 2.86244 5.42459 2.64344C7.00259 2.01944 10.7526 2.16044 12.5016 2.16044C14.2506 2.16044 18.0006 2.01944 19.5786 2.64344C20.1246 2.86244 20.5326 3.12644 20.9526 3.54944C21.3756 3.97244 21.6396 4.37744 21.8586 4.92344C22.4826 6.50144 22.3416 10.2514 22.3416 12.0004C22.3416 13.7494 22.4826 17.4964 21.8556 19.0744Z" fill="#E61F5A"></path>
  </symbol>

  <symbol fill="none" xmlns="http://www.w3.org/2000/svg" viewBox="0 0 25 20" id="footer-twitter-icon">
    <path d="M24.5004 2.46548C23.6188 2.85141 22.6594 3.12917 21.6711 3.23735C22.6971 2.61879 23.4655 1.64156 23.832 0.489007C22.8692 1.07022 21.8145 1.47778 20.7146 1.6936C20.2549 1.19488 19.6989 0.797581 19.0813 0.526453C18.4636 0.255325 17.7976 0.116179 17.1247 0.117688C14.402 0.117688 12.2123 2.3573 12.2123 5.10564C12.2123 5.49158 12.2584 5.87752 12.3333 6.24884C8.2565 6.03248 4.62048 4.05601 2.2032 1.0299C1.76274 1.79335 1.53193 2.66261 1.53477 3.54727C1.53477 5.27814 2.402 6.80435 3.72444 7.70195C2.94511 7.6708 2.18402 7.45342 1.50308 7.06749V7.12889C1.50308 9.5527 3.19143 11.5613 5.44161 12.0233C5.01912 12.1347 4.58449 12.1916 4.14797 12.1929C3.82817 12.1929 3.52565 12.1607 3.22024 12.1168C3.84257 14.0933 5.65482 15.5289 7.8128 15.5757C6.12444 16.9177 4.00968 17.7071 1.7134 17.7071C1.3014 17.7071 0.921085 17.6925 0.526367 17.6457C2.70452 19.0637 5.28891 19.8824 8.0721 19.8824C17.1074 19.8824 22.0514 12.2864 22.0514 5.69332C22.0514 5.47696 22.0514 5.2606 22.037 5.04424C22.9936 4.33377 23.832 3.45371 24.5004 2.46548Z" fill="#21A6DF"></path>
  </symbol>

  <symbol fill="none" xmlns="http://www.w3.org/2000/svg" viewBox="0 0 25 18" id="footer-youtube-icon">
    <path d="M23.9699 2.93179C23.8335 2.39882 23.5663 1.91289 23.1951 1.52261C22.824 1.13234 22.3619 0.851413 21.855 0.707956C19.9884 0.176758 12.4879 0.176758 12.4879 0.176758C12.4879 0.176758 4.98729 0.176758 3.12071 0.707956C2.61385 0.851413 2.15172 1.13234 1.78057 1.52261C1.40941 1.91289 1.14225 2.39882 1.00582 2.93179C0.657288 4.93347 0.488155 6.96513 0.500644 9.00005C0.488155 11.035 0.657288 13.0666 1.00582 15.0683C1.14225 15.6013 1.40941 16.0872 1.78057 16.4775C2.15172 16.8678 2.61385 17.1487 3.12071 17.2921C4.98729 17.8233 12.4879 17.8233 12.4879 17.8233C12.4879 17.8233 19.9884 17.8233 21.855 17.2921C22.3619 17.1487 22.824 16.8678 23.1951 16.4775C23.5663 16.0872 23.8335 15.6013 23.9699 15.0683C24.3184 13.0666 24.4876 11.035 24.4751 9.00005C24.4876 6.96513 24.3184 4.93347 23.9699 2.93179ZM10.0904 12.7815V5.21864L16.3152 9.00005L10.0904 12.7815Z" fill="#E42F08"></path>
  </symbol>

</svg>