<svg width="0" height="0" class="hidden">
  <symbol fill="none" xmlns="http://www.w3.org/2000/svg" viewBox="0 0 30 30" id="about-icn-people">
    <path fill-rule="evenodd" clip-rule="evenodd" d="M17.2367 7.77151C16.7729 8.09308 16.2497 8.31905 15.6976 8.43623C15.1456 8.55342 14.5757 8.55949 14.0212 8.45407C13.4668 8.34865 12.9389 8.13385 12.4684 7.82223C11.9979 7.5106 11.5941 7.10838 11.2807 6.63904C10.9673 6.1697 10.7505 5.64263 10.643 5.08861C10.5354 4.53458 10.5393 3.96468 10.6544 3.41218C10.7695 2.85967 10.9935 2.33562 11.3133 1.8706C11.6331 1.40559 12.0423 1.00893 12.517 0.703761C13.4544 0.0846608 14.5986 -0.138187 15.6998 0.0839308C16.8009 0.306048 17.7693 0.955065 18.3933 1.88911C19.0173 2.82315 19.2462 3.96625 19.0298 5.06853C18.8135 6.17081 18.1696 7.14262 17.2388 7.77151H17.2367ZM16.0573 2.47176C15.8259 2.30528 15.5633 2.18706 15.2853 2.12415C15.0072 2.06124 14.7193 2.05493 14.4388 2.10558C14.1583 2.15622 13.8908 2.26281 13.6523 2.41897C13.4138 2.57514 13.2091 2.7777 13.0505 3.0146C12.8919 3.25149 12.7826 3.51788 12.7291 3.79789C12.6756 4.07791 12.679 4.36583 12.739 4.64451C12.7991 4.92319 12.9146 5.18694 13.0788 5.42004C13.2429 5.65315 13.4522 5.85086 13.6943 6.00139C14.162 6.28552 14.7214 6.37824 15.2558 6.26023C15.7902 6.14222 16.2585 5.82258 16.563 5.36789C16.8676 4.9132 16.985 4.35852 16.8908 3.81941C16.7966 3.2803 16.498 2.79833 16.0573 2.47389V2.47176ZM21.6036 2.53551C22.2164 2.12326 22.9539 1.93762 23.6889 2.01054C24.4239 2.08346 25.1105 2.41038 25.6304 2.93501C26.0009 3.30848 26.2741 3.76715 26.426 4.27079C26.578 4.77443 26.604 5.30766 26.5018 5.82371C26.3997 6.33975 26.1724 6.82284 25.8401 7.23061C25.5077 7.63838 25.0804 7.95837 24.5956 8.16251C24.0133 8.40598 23.3715 8.47011 22.7526 8.34669C22.1336 8.22328 21.5656 7.91794 21.1212 7.46976C20.7872 7.13405 20.5315 6.72865 20.3725 6.28259C20.2135 5.83653 20.155 5.36083 20.2013 4.88954C20.2476 4.41825 20.3975 3.96302 20.6403 3.55643C20.8831 3.14984 21.2127 2.80194 21.6057 2.53764L21.6036 2.53551ZM22.6236 5.95676C22.8231 6.15543 23.0933 6.2667 23.3749 6.2661C23.5143 6.2658 23.6523 6.23805 23.7809 6.18443C23.9096 6.13081 24.0265 6.05236 24.1249 5.95357C24.2232 5.85479 24.3012 5.73759 24.3543 5.60868C24.4073 5.47977 24.4345 5.34167 24.4342 5.20226C24.4339 5.06285 24.4062 4.92486 24.3525 4.79618C24.2989 4.66749 24.2205 4.55063 24.1217 4.45226C23.9238 4.25328 23.6564 4.13899 23.3758 4.13351C23.2357 4.13323 23.0968 4.16073 22.9674 4.21442C22.8379 4.26811 22.7204 4.34694 22.6216 4.44633C22.5228 4.54573 22.4447 4.66372 22.3918 4.7935C22.3388 4.92327 22.3122 5.06224 22.3133 5.20239C22.314 5.48539 22.4253 5.7569 22.6236 5.95889V5.95676ZM4.65455 24.3975H8.5008V26.5331H4.65455C3.98123 26.5271 3.3378 26.2542 2.8653 25.7745C2.39099 25.293 2.12533 24.6441 2.1258 23.9683V20.122C1.8397 20.1124 1.5585 20.045 1.29919 19.9237C1.03988 19.8025 0.807827 19.6299 0.61705 19.4165C0.414334 19.2112 0.255241 18.967 0.149338 18.6985C0.0434344 18.4301 -0.00709083 18.1431 0.000800442 17.8546V13.2179C0.00717544 12.2149 0.40455 11.2565 1.1058 10.5446C1.80493 9.84126 2.75055 9.43964 3.7408 9.43326H7.6508C7.1234 10.0614 6.72612 10.788 6.48205 11.571H3.7408C3.30951 11.5834 2.89915 11.7597 2.5933 12.064C2.29287 12.3729 2.1251 12.787 2.1258 13.2179V17.9609H4.2508V23.9661C4.24587 24.024 4.25275 24.0823 4.27101 24.1375C4.28928 24.1926 4.31855 24.2435 4.35705 24.287C4.44247 24.353 4.54664 24.3902 4.65455 24.3933V24.3975ZM20.167 10.5468C19.8193 10.1957 19.4057 9.91675 18.9498 9.72602C18.494 9.53529 18.0049 9.43652 17.5108 9.43539H12.2408C11.2502 9.44331 10.3029 9.84284 9.6058 10.5468C8.90455 11.2586 8.50718 12.217 8.5008 13.22V19.9733C8.4978 20.5531 8.71853 21.1118 9.11705 21.533C9.30806 21.7462 9.54016 21.9185 9.79943 22.0397C10.0587 22.161 10.3398 22.2286 10.6258 22.2385V27.1749C10.6238 27.5118 10.6885 27.8458 10.8161 28.1576C10.9438 28.4695 11.1319 28.7529 11.3696 28.9918C11.7521 29.3488 12.2344 29.5804 12.7508 29.6548H17.0008C17.5985 29.5763 18.1461 29.2797 18.5384 28.8219C18.9306 28.3642 19.1398 27.7776 19.1258 27.1749V22.2364C19.4119 22.2268 19.6931 22.1594 19.9524 22.0381C20.2117 21.9169 20.4438 21.7443 20.6346 21.5309C20.8371 21.3259 20.9961 21.082 21.102 20.814C21.2079 20.5459 21.2585 20.2592 21.2508 19.9711V13.2179C21.2523 12.2195 20.8633 11.2601 20.167 10.5446V10.5468ZM19.1258 20.0774H17.0008V27.1749C16.9987 27.2869 16.953 27.3937 16.8733 27.4724C16.837 27.5153 16.7913 27.5492 16.7396 27.5713C16.688 27.5935 16.6319 27.6032 16.5758 27.5999H13.1546C13.0435 27.5947 12.9384 27.5483 12.8598 27.4697C12.7812 27.3911 12.7347 27.2859 12.7296 27.1749V20.0774H10.6258V13.2179C10.6258 12.7865 10.7937 12.3721 11.0933 12.064C11.3992 11.7597 11.8095 11.5834 12.2408 11.571H17.5108C17.8327 11.5767 18.146 11.6762 18.4121 11.8574C18.6782 12.0386 18.8857 12.2936 19.0089 12.591C19.0898 12.7899 19.1296 13.0032 19.1258 13.2179V20.0774ZM25.0971 26.531H21.2508V24.3954H25.0758C25.1837 24.3924 25.2879 24.3551 25.3733 24.2891C25.4161 24.2473 25.4496 24.1969 25.4715 24.1413C25.4935 24.0856 25.5035 24.0259 25.5008 23.9661V17.9609H27.6258V13.2179C27.6265 12.787 27.4587 12.3729 27.1583 12.064C26.8524 11.7597 26.4421 11.5834 26.0108 11.571H23.2696C23.0256 10.788 22.6283 10.0613 22.1008 9.43326H26.0108C27.0012 9.44234 27.9481 9.84169 28.6458 10.5446C29.347 11.2565 29.7444 12.2149 29.7508 13.2179V17.8546C29.7508 18.4348 29.5319 18.9915 29.1367 19.4123C28.7414 19.8351 28.2017 20.088 27.6258 20.1199V23.9661C27.6258 24.644 27.3602 25.2921 26.8863 25.7724C26.4138 26.2521 25.7704 26.5249 25.0971 26.531ZM6.3758 1.99576C5.74346 1.99503 5.12531 2.18314 4.60057 2.536C4.07583 2.88885 3.66842 3.39037 3.43055 3.97626C3.19049 4.56195 3.12817 5.20536 3.25136 5.82623C3.37456 6.4471 3.67781 7.01797 4.1233 7.46764C4.56863 7.91678 5.13774 8.22298 5.75793 8.34712C6.37812 8.47126 7.02124 8.4077 7.60514 8.16456C8.18903 7.92142 8.68719 7.50975 9.03598 6.98212C9.38478 6.45449 9.56837 5.83486 9.5633 5.20239C9.5633 4.35239 9.22755 3.53639 8.6283 2.93501C8.33323 2.63779 7.98233 2.40181 7.59577 2.24063C7.20921 2.07944 6.79462 1.99622 6.3758 1.99576ZM6.3758 6.27126C6.23565 6.27155 6.09684 6.24405 5.96739 6.19035C5.83793 6.13666 5.72041 6.05784 5.6216 5.95844C5.5228 5.85905 5.44468 5.74105 5.39176 5.61128C5.33885 5.48151 5.31218 5.34253 5.3133 5.20239C5.31385 4.92017 5.42577 4.64959 5.62473 4.44944C5.82368 4.24928 6.0936 4.13575 6.3758 4.13351C6.65714 4.13847 6.92548 4.25287 7.12386 4.45244C7.32223 4.652 7.43503 4.92102 7.4383 5.20239C7.43775 5.4846 7.32583 5.75519 7.12688 5.95534C6.92792 6.15549 6.658 6.26902 6.3758 6.27126Z" fill="#D0A144"></path>
  </symbol>
  <symbol fill="none" xmlns="http://www.w3.org/2000/svg" viewBox="0 0 32 26" id="about-icn-speed">
    <path d="M29.8154 7.36456L27.8167 10.3708C28.7806 12.2933 29.2525 14.4249 29.1901 16.5746C29.1277 18.7243 28.5329 20.825 27.4592 22.6883H4.93666C3.54106 20.2672 2.96277 17.4609 3.28751 14.6853C3.61226 11.9097 4.82277 9.31265 6.73956 7.27913C8.65636 5.2456 11.1774 3.88388 13.929 3.39581C16.6806 2.90775 19.5162 3.31934 22.0154 4.56956L25.0217 2.57081C21.9609 0.608159 18.3304 -0.27131 14.7109 0.0730789C11.0913 0.417467 7.69176 1.96581 5.05609 4.47045C2.42042 6.97509 0.700875 10.2913 0.172515 13.8886C-0.355844 17.486 0.337506 21.1566 2.14166 24.3133C2.42524 24.8045 2.83243 25.2129 3.32276 25.498C3.81309 25.7831 4.36949 25.9349 4.93666 25.9383H27.4429C28.0156 25.9406 28.5787 25.7915 29.0752 25.5061C29.5718 25.2208 29.9841 24.8093 30.2704 24.3133C31.7676 21.7197 32.519 18.7627 32.4416 15.769C32.3642 12.7752 31.461 9.86108 29.8317 7.34831L29.8154 7.36456ZM13.9067 18.4796C14.2085 18.7817 14.5669 19.0214 14.9615 19.185C15.356 19.3486 15.7789 19.4327 16.206 19.4327C16.6331 19.4327 17.056 19.3486 17.4506 19.185C17.8451 19.0214 18.2036 18.7817 18.5054 18.4796L27.7029 4.68331L13.9067 13.8808C13.6045 14.1826 13.3648 14.5411 13.2012 14.9356C13.0377 15.3302 12.9535 15.7531 12.9535 16.1802C12.9535 16.6073 13.0377 17.0302 13.2012 17.4247C13.3648 17.8193 13.6045 18.1777 13.9067 18.4796Z" fill="#D0A144"></path>

  <symbol fill="none" xmlns="http://www.w3.org/2000/svg" viewBox="0 0 25 24" id="footer-facebook-icon">
    <path d="M23.54 0H1.46C0.929 0 0.5 0.429 0.5 0.96V23.04C0.5 23.571 0.929 24 1.46 24H23.54C24.071 24 24.5 23.571 24.5 23.04V0.96C24.5 0.429 24.071 0 23.54 0ZM20.768 7.005H18.851C17.348 7.005 17.057 7.719 17.057 8.769V11.082H20.645L20.177 14.703H17.057V24H13.316V14.706H10.187V11.082H13.316V8.412C13.316 5.313 15.209 3.624 17.975 3.624C19.301 3.624 20.438 3.723 20.771 3.768V7.005H20.768Z" fill="#335BF5"></path>
  </symbol>

  <symbol fill="none" xmlns="http://www.w3.org/2000/svg" viewBox="0 0 25 24" id="footer-instagram-icon">
    <path d="M12.5016 5.84744C9.09659 5.84744 6.34859 8.59544 6.34859 12.0004C6.34859 15.4054 9.09659 18.1534 12.5016 18.1534C15.9066 18.1534 18.6546 15.4054 18.6546 12.0004C18.6546 8.59544 15.9066 5.84744 12.5016 5.84744ZM12.5016 15.9994C10.2996 15.9994 8.50259 14.2024 8.50259 12.0004C8.50259 9.79844 10.2996 8.00144 12.5016 8.00144C14.7036 8.00144 16.5006 9.79844 16.5006 12.0004C16.5006 14.2024 14.7036 15.9994 12.5016 15.9994ZM18.9066 4.16144C18.1116 4.16144 17.4696 4.80344 17.4696 5.59844C17.4696 6.39344 18.1116 7.03544 18.9066 7.03544C19.7016 7.03544 20.3436 6.39644 20.3436 5.59844C20.3438 5.40966 20.3068 5.22269 20.2347 5.04824C20.1625 4.87379 20.0567 4.71528 19.9232 4.5818C19.7897 4.44831 19.6312 4.34247 19.4568 4.27034C19.2823 4.19821 19.0954 4.1612 18.9066 4.16144ZM24.4956 12.0004C24.4956 10.3444 24.5106 8.70344 24.4176 7.05044C24.3246 5.13044 23.8866 3.42644 22.4826 2.02244C21.0756 0.615437 19.3746 0.180437 17.4546 0.0874372C15.7986 -0.00556279 14.1576 0.00943725 12.5046 0.00943725C10.8486 0.00943725 9.20759 -0.00556279 7.55459 0.0874372C5.63459 0.180437 3.93059 0.618437 2.52659 2.02244C1.11959 3.42944 0.684588 5.13044 0.591588 7.05044C0.498588 8.70644 0.513588 10.3474 0.513588 12.0004C0.513588 13.6534 0.498588 15.2974 0.591588 16.9504C0.684588 18.8704 1.12259 20.5744 2.52659 21.9784C3.93359 23.3854 5.63459 23.8204 7.55459 23.9134C9.21059 24.0064 10.8516 23.9914 12.5046 23.9914C14.1606 23.9914 15.8016 24.0064 17.4546 23.9134C19.3746 23.8204 21.0786 23.3824 22.4826 21.9784C23.8896 20.5714 24.3246 18.8704 24.4176 16.9504C24.5136 15.2974 24.4956 13.6564 24.4956 12.0004ZM21.8556 19.0744C21.6366 19.6204 21.3726 20.0284 20.9496 20.4484C20.5266 20.8714 20.1216 21.1354 19.5756 21.3544C17.9976 21.9814 14.2506 21.8404 12.5016 21.8404C10.7526 21.8404 7.00259 21.9814 5.42459 21.3574C4.87859 21.1384 4.47059 20.8744 4.05059 20.4514C3.62759 20.0284 3.36359 19.6234 3.14459 19.0774C2.52059 17.4964 2.66159 13.7494 2.66159 12.0004C2.66159 10.2514 2.52059 6.50144 3.14459 4.92344C3.36359 4.37744 3.62759 3.96944 4.05059 3.54944C4.47359 3.12944 4.87859 2.86244 5.42459 2.64344C7.00259 2.01944 10.7526 2.16044 12.5016 2.16044C14.2506 2.16044 18.0006 2.01944 19.5786 2.64344C20.1246 2.86244 20.5326 3.12644 20.9526 3.54944C21.3756 3.97244 21.6396 4.37744 21.8586 4.92344C22.4826 6.50144 22.3416 10.2514 22.3416 12.0004C22.3416 13.7494 22.4826 17.4964 21.8556 19.0744Z" fill="#E61F5A"></path>
  </symbol>

  <symbol fill="none" xmlns="http://www.w3.org/2000/svg" viewBox="0 0 25 20" id="footer-twitter-icon">
    <path d="M24.5004 2.46548C23.6188 2.85141 22.6594 3.12917 21.6711 3.23735C22.6971 2.61879 23.4655 1.64156 23.832 0.489007C22.8692 1.07022 21.8145 1.47778 20.7146 1.6936C20.2549 1.19488 19.6989 0.797581 19.0813 0.526453C18.4636 0.255325 17.7976 0.116179 17.1247 0.117688C14.402 0.117688 12.2123 2.3573 12.2123 5.10564C12.2123 5.49158 12.2584 5.87752 12.3333 6.24884C8.2565 6.03248 4.62048 4.05601 2.2032 1.0299C1.76274 1.79335 1.53193 2.66261 1.53477 3.54727C1.53477 5.27814 2.402 6.80435 3.72444 7.70195C2.94511 7.6708 2.18402 7.45342 1.50308 7.06749V7.12889C1.50308 9.5527 3.19143 11.5613 5.44161 12.0233C5.01912 12.1347 4.58449 12.1916 4.14797 12.1929C3.82817 12.1929 3.52565 12.1607 3.22024 12.1168C3.84257 14.0933 5.65482 15.5289 7.8128 15.5757C6.12444 16.9177 4.00968 17.7071 1.7134 17.7071C1.3014 17.7071 0.921085 17.6925 0.526367 17.6457C2.70452 19.0637 5.28891 19.8824 8.0721 19.8824C17.1074 19.8824 22.0514 12.2864 22.0514 5.69332C22.0514 5.47696 22.0514 5.2606 22.037 5.04424C22.9936 4.33377 23.832 3.45371 24.5004 2.46548Z" fill="#21A6DF"></path>
  </symbol>

  <symbol fill="none" xmlns="http://www.w3.org/2000/svg" viewBox="0 0 25 18" id="footer-youtube-icon">
    <path d="M23.9699 2.93179C23.8335 2.39882 23.5663 1.91289 23.1951 1.52261C22.824 1.13234 22.3619 0.851413 21.855 0.707956C19.9884 0.176758 12.4879 0.176758 12.4879 0.176758C12.4879 0.176758 4.98729 0.176758 3.12071 0.707956C2.61385 0.851413 2.15172 1.13234 1.78057 1.52261C1.40941 1.91289 1.14225 2.39882 1.00582 2.93179C0.657288 4.93347 0.488155 6.96513 0.500644 9.00005C0.488155 11.035 0.657288 13.0666 1.00582 15.0683C1.14225 15.6013 1.40941 16.0872 1.78057 16.4775C2.15172 16.8678 2.61385 17.1487 3.12071 17.2921C4.98729 17.8233 12.4879 17.8233 12.4879 17.8233C12.4879 17.8233 19.9884 17.8233 21.855 17.2921C22.3619 17.1487 22.824 16.8678 23.1951 16.4775C23.5663 16.0872 23.8335 15.6013 23.9699 15.0683C24.3184 13.0666 24.4876 11.035 24.4751 9.00005C24.4876 6.96513 24.3184 4.93347 23.9699 2.93179ZM10.0904 12.7815V5.21864L16.3152 9.00005L10.0904 12.7815Z" fill="#E42F08"></path>
  </symbol>
  <symbol xmlns="http://www.w3.org/2000/svg" viewBox="0 0 24 14" id="header-burger">
    <g clip-path="url(#a)">
      <path d="M.571 0h22.857v2.286H.571V0Zm5.715 5.714h17.142V8H6.286V5.714Zm7.142 5.715h10v2.285h-10V11.43Z"></path>
    </g>
    <defs>
      <clipPath id="a">
        <path  d="M0 0h24v13.714H0z"></path>
      </clipPath>
    </defs>
  </symbol>
  <symbol xmlns="http://www.w3.org/2000/svg" viewBox="0 0 20 20" id="header-glass">
    <g clip-path="url(#a)">
      <path fill-rule="evenodd" clip-rule="evenodd" d="m11.46 12.319 4.304 4.303a.807.807 0 0 1-1.142 1.141L10.32 13.46a6.4 6.4 0 1 1 1.14-1.14h.001Zm-5.06.88a4.8 4.8 0 1 0 0-9.6 4.8 4.8 0 0 0 0 9.6Z" ></path>
    </g>
    <defs>
      <clipPath id="a">
        <path d="M0 0h20.001v20.001H0z"></path>
      </clipPath>
    </defs>
  </symbol>
  <symbol xmlns="http://www.w3.org/2000/svg" viewBox="0 0 16 15" id="header-cart">
    <g clip-path="url(#a)">
      <path d="M5.333 14.934a1.067 1.067 0 1 0 0-2.134 1.067 1.067 0 0 0 0 2.134ZM12.8 14.934a1.067 1.067 0 1 0 0-2.134 1.067 1.067 0 0 0 0 2.134ZM14.933 2.667H3.104L2.667.427A.533.533 0 0 0 2.133 0H0v1.067h1.696l2.037 10.24a.533.533 0 0 0 .534.426h9.6v-1.066H4.704l-.437-2.134h9.6a.533.533 0 0 0 .533-.416l1.067-4.8a.535.535 0 0 0-.534-.65Zm-1.493 4.8H4.064l-.747-3.734h10.95l-.827 3.734Z"></path>
    </g>
    <defs>
      <clipPath id="a">
        <path d="M0 0h16v14.933H0z"></path>
      </clipPath>
    </defs>
  </symbol>
  <symbol xmlns="http://www.w3.org/2000/svg" viewBox="0 0 48 48" id="hero-doc">
    <path d="M16.256 9.44H7.504c-.81 0-1.466.643-1.466 1.436 0 .792.657 1.435 1.466 1.435h8.752c.81 0 1.467-.643 1.467-1.435 0-.793-.657-1.436-1.467-1.436ZM16.256 15.183H7.504c-.81 0-1.466.642-1.466 1.435s.657 1.436 1.466 1.436h8.752c.81 0 1.467-.643 1.467-1.436 0-.793-.657-1.435-1.467-1.435ZM16.256 20.925H7.504c-.81 0-1.466.642-1.466 1.435s.657 1.436 1.466 1.436h8.752c.81 0 1.467-.643 1.467-1.436 0-.793-.657-1.435-1.467-1.435ZM16.256 26.668H7.504c-.81 0-1.466.642-1.466 1.435s.657 1.436 1.466 1.436h8.752c.81 0 1.467-.643 1.467-1.436 0-.793-.657-1.436-1.467-1.436ZM16.256 32.506H7.504c-.81 0-1.466.643-1.466 1.436 0 .793.657 1.435 1.466 1.435h8.752c.81 0 1.467-.642 1.467-1.435s-.657-1.436-1.467-1.436ZM21.18 12.311h8.752c.81 0 1.466-.643 1.466-1.435 0-.793-.656-1.436-1.466-1.436H21.18c-.81 0-1.466.643-1.466 1.436 0 .792.657 1.435 1.466 1.435ZM21.18 18.054h8.752c.81 0 1.466-.643 1.466-1.436 0-.793-.656-1.435-1.466-1.435H21.18c-.81 0-1.466.642-1.466 1.435s.657 1.436 1.466 1.436ZM26.862 22.36c0-.793-.657-1.435-1.467-1.435H21.18c-.81 0-1.466.642-1.466 1.435s.657 1.436 1.466 1.436h4.215c.81 0 1.467-.643 1.467-1.436ZM40.753 33.112a1.488 1.488 0 0 0-2.061.221l-3.777 4.61-2.338-1.659a1.487 1.487 0 0 0-2.048.32 1.417 1.417 0 0 0 .327 2.005l3.469 2.46c.26.184.56.274.86.274.43 0 .855-.186 1.144-.538l4.65-5.675a1.415 1.415 0 0 0-.226-2.018Z"></path>
    <path d="M44.46 28.705a12.19 12.19 0 0 0-7.024-3.455V5.78C37.436 2.594 34.786 0 31.53 0H5.906C2.65 0 0 2.594 0 5.781v33.255c0 3.188 2.65 5.782 5.906 5.782h20.609C28.835 47.483 32.169 49 35.776 49c6.715 0 12.179-5.352 12.179-11.93 0-3.15-1.241-6.12-3.495-8.365ZM2.933 39.035V5.782c0-1.604 1.334-2.91 2.973-2.91H31.53c1.64 0 2.973 1.306 2.973 2.91v19.423c-6.12.626-10.905 5.708-10.905 11.866 0 1.706.363 3.356 1.06 4.876H5.907c-1.64 0-2.973-1.305-2.973-2.91Zm32.843 7.094c-2.928 0-5.62-1.316-7.387-3.611a8.862 8.862 0 0 1-1.859-5.448c0-4.996 4.148-9.06 9.246-9.06l.145.002h.023a9.283 9.283 0 0 1 6.424 2.706 8.913 8.913 0 0 1 2.654 6.352c0 4.995-4.148 9.059-9.246 9.059Z"></path>
  </symbol>
  <symbol xmlns="http://www.w3.org/2000/svg" viewBox="0 0 43 36" id="hero-justice">
    <path d="M23.322 32.09H19.68a.617.617 0 0 1-.433-.177.596.596 0 0 1-.18-.425V2.43c0-.634.257-1.243.713-1.691a2.456 2.456 0 0 1 1.721-.7c.646 0 1.265.251 1.721.7.457.448.713 1.057.713 1.691v29.06c0 .16-.064.312-.18.425a.617.617 0 0 1-.432.176Zm-3.031-1.204h2.419V2.43c0-.315-.127-.617-.354-.84a1.22 1.22 0 0 0-1.71 0 1.179 1.179 0 0 0-.355.84v28.458ZM6.746 8.103H4.645a1.919 1.919 0 0 1-1.323-.56c-.35-.349-.546-.82-.546-1.31 0-.49.196-.96.546-1.31.35-.35.824-.55 1.323-.56h1.803c.163 0 .318.064.433.177a.596.596 0 0 1 0 .85.618.618 0 0 1-.433.177H4.645a.684.684 0 0 0-.467.202.66.66 0 0 0 0 .929c.123.124.29.196.467.202h2.101c.163 0 .318.063.433.176a.596.596 0 0 1 0 .85.618.618 0 0 1-.433.177Z"></path>
    <path d="M19.678 8.103H10.45a.618.618 0 0 1-.433-.176.596.596 0 0 1 0-.851.618.618 0 0 1 .433-.176h8.616V5.567h-8.318a.618.618 0 0 1-.433-.176.596.596 0 0 1 0-.851.618.618 0 0 1 .433-.176h8.93c.163 0 .319.063.433.176.115.113.18.266.18.425v2.536c0 .16-.065.313-.18.426a.618.618 0 0 1-.433.176ZM32.417 8.103h-9.095a.618.618 0 0 1-.433-.176.596.596 0 0 1-.179-.426V4.965c0-.16.064-.312.18-.425a.618.618 0 0 1 .432-.176h8.798c.162 0 .318.063.433.176a.596.596 0 0 1 0 .85.618.618 0 0 1-.433.177h-8.186V6.9h8.483c.163 0 .318.063.433.176a.596.596 0 0 1 0 .85.618.618 0 0 1-.433.177ZM38.35 8.103h-2.096a.618.618 0 0 1-.433-.176.596.596 0 0 1 0-.851.618.618 0 0 1 .433-.176h2.095a.684.684 0 0 0 .467-.202.66.66 0 0 0 0-.929.684.684 0 0 0-.467-.202h-1.793a.618.618 0 0 1-.433-.176.596.596 0 0 1 0-.851.618.618 0 0 1 .433-.176h1.793c.499.009.974.21 1.324.56.349.349.545.82.545 1.31 0 .49-.196.96-.546 1.31-.349.35-.824.55-1.323.559ZM29.253 35.962H13.747a.621.621 0 0 1-.482-.231.597.597 0 0 1-.112-.516 5.431 5.431 0 0 1 1.846-3.047 5.599 5.599 0 0 1 3.365-1.285h6.272c1.236.048 2.42.5 3.364 1.285a5.431 5.431 0 0 1 1.847 3.047.591.591 0 0 1-.112.516.608.608 0 0 1-.482.23Zm-14.66-1.204h13.813a4.136 4.136 0 0 0-1.475-1.893 4.246 4.246 0 0 0-2.295-.775h-6.272c-.826.03-1.625.3-2.296.775a4.136 4.136 0 0 0-1.475 1.893Z" ></path>
    <path d="M30.911 35.962H12.09a.618.618 0 0 1-.433-.176.597.597 0 0 1 0-.851.618.618 0 0 1 .433-.176H30.91c.163 0 .319.063.433.176a.596.596 0 0 1 0 .85.618.618 0 0 1-.433.177ZM42.313 23.188H26.494a.62.62 0 0 1-.515-.276.594.594 0 0 1-.042-.575l6.721-14.544a.602.602 0 0 1 .343-.315.622.622 0 0 1 .663.152.601.601 0 0 1 .164.432.594.594 0 0 1-.055.229l-6.329 13.694h13.917L35.038 8.29a.592.592 0 0 1 .11-.66.612.612 0 0 1 .427-.19.621.621 0 0 1 .439.162.602.602 0 0 1 .14.19l6.714 14.545a.593.593 0 0 1-.263.776.62.62 0 0 1-.291.074Z"></path>
    <path d="M34.467 30.863h-.128c-4.901 0-8.46-3.48-8.46-8.276 0-.16.065-.312.18-.425a.617.617 0 0 1 .433-.176h15.821c.163 0 .319.063.433.176.115.113.18.266.18.425 0 4.799-3.558 8.276-8.46 8.276Zm-7.341-7.674c.273 3.84 3.162 6.47 7.213 6.47h.128c4.051 0 6.94-2.63 7.213-6.47H27.126ZM34.404 8.96a3.047 3.047 0 0 1-1.673-.497 2.969 2.969 0 0 1-1.108-1.328 2.91 2.91 0 0 1-.172-1.709c.116-.574.403-1.1.824-1.514.42-.414.957-.696 1.541-.81a3.058 3.058 0 0 1 1.739.169 3 3 0 0 1 1.35 1.09c.331.486.508 1.058.507 1.643a2.935 2.935 0 0 1-.882 2.09 3.04 3.04 0 0 1-2.126.867Zm0-4.71c-.354 0-.699.102-.992.295a1.761 1.761 0 0 0-.658.787 1.727 1.727 0 0 0 .387 1.912 1.814 1.814 0 0 0 1.945.38c.326-.132.605-.357.801-.646a1.734 1.734 0 0 0-.222-2.214 1.803 1.803 0 0 0-1.261-.515ZM16.505 23.188H.686a.62.62 0 0 1-.514-.276.594.594 0 0 1-.043-.574L6.852 7.793a.608.608 0 0 1 .342-.314.622.622 0 0 1 .469.015.606.606 0 0 1 .32.337.592.592 0 0 1-.016.46L1.64 21.985h13.916L9.232 8.291a.593.593 0 0 1 .3-.808.621.621 0 0 1 .677.115.601.601 0 0 1 .138.196l6.715 14.544a.593.593 0 0 1-.264.777.62.62 0 0 1-.293.073Z" ></path>
    <path d="M8.66 30.863h-.127c-4.9 0-8.459-3.477-8.459-8.276 0-.16.065-.312.18-.425a.617.617 0 0 1 .432-.176h15.822c.162 0 .318.063.433.176.114.113.179.266.179.425 0 4.799-3.558 8.276-8.46 8.276Zm-7.34-7.674c.272 3.84 3.162 6.47 7.213 6.47h.127c4.052 0 6.941-2.63 7.214-6.47H1.32ZM8.597 8.96a3.047 3.047 0 0 1-1.672-.498 2.97 2.97 0 0 1-1.108-1.327 2.91 2.91 0 0 1-.171-1.71c.116-.573.403-1.1.824-1.514.42-.413.957-.695 1.54-.809a3.058 3.058 0 0 1 1.74.169c.55.224 1.02.603 1.35 1.09.33.486.507 1.058.507 1.643-.001.784-.319 1.535-.883 2.09a3.04 3.04 0 0 1-2.127.867Zm0-4.71c-.353 0-.698.102-.991.295a1.761 1.761 0 0 0-.658.787 1.726 1.726 0 0 0 .387 1.912 1.814 1.814 0 0 0 1.945.38c.327-.132.605-.357.801-.646a1.733 1.733 0 0 0-.222-2.214 1.803 1.803 0 0 0-1.262-.515Z"></path>
  </symbol>
  <symbol xmlns="http://www.w3.org/2000/svg" viewBox="0 0 44 44" id="hero-hammer">
    <path d="M10.121 14.983A.86.86 0 1 0 8.906 16.2a.86.86 0 0 0 1.215-1.217ZM21.76 38.476a3.011 3.011 0 0 0-2.424-4.79H4.725c-.803 0-1.559.313-2.126.881a2.988 2.988 0 0 0-.881 2.127c0 .666.218 1.282.585 1.78A4.3 4.3 0 0 0 0 42.28v.86c0 .474.385.859.86.859h22.342a.86.86 0 0 0 .86-.86v-.86a4.3 4.3 0 0 0-2.303-3.803ZM3.814 35.782a1.28 1.28 0 0 1 .911-.377h14.61a1.29 1.29 0 0 1 .91 2.2 1.28 1.28 0 0 1-.91.378H4.725a1.29 1.29 0 0 1-.911-2.2ZM1.719 42.28a2.581 2.581 0 0 1 2.578-2.578h15.468a2.581 2.581 0 0 1 2.578 2.578H1.719Z" ></path>
    <path d="M43.2 36.104a5.41 5.41 0 0 0-1.035-1.188l-4.015-3.503a.871.871 0 0 0-.342-.298l-2.428-2.118-11.24-9.804c.46-.481.713-1.11.713-1.78a2.562 2.562 0 0 0-1.468-2.325l1.04-1.04a3.427 3.427 0 0 0 3.318-.888 3.415 3.415 0 0 0 1.007-2.43c0-.919-.357-1.782-1.007-2.431l-7.291-7.292A3.415 3.415 0 0 0 18.02 0a3.439 3.439 0 0 0-3.319 4.326L4.327 14.7a3.46 3.46 0 0 0-.89-.116c-.918 0-1.78.357-2.43 1.006a3.442 3.442 0 0 0 0 4.862L8.3 27.743c.67.67 1.55 1.005 2.43 1.005.88 0 1.761-.335 2.431-1.005a3.438 3.438 0 0 0 .889-3.318l1.037-1.038c.125.26.294.5.504.71a2.561 2.561 0 0 0 1.823.756 2.56 2.56 0 0 0 1.78-.713l11.97 13.755a.866.866 0 0 0 .165.189l3.567 4.099a5.111 5.111 0 0 0 4.638 1.767c1.618-.224 3.017-1.192 3.837-2.656a5.085 5.085 0 0 0-.17-5.19ZM16.806 2.222a1.707 1.707 0 0 1 1.215-.503c.459 0 .89.179 1.215.503l7.292 7.292c.325.325.504.756.504 1.215a1.72 1.72 0 0 1-2.934 1.215l-7.292-7.291a1.72 1.72 0 0 1 0-2.43Zm-4.861 24.306c-.67.67-1.76.67-2.431 0l-7.292-7.292a1.72 1.72 0 0 1 0-2.43 1.707 1.707 0 0 1 1.215-.503c.46 0 .891.178 1.215.502l7.293 7.293c.67.67.67 1.76 0 2.43Zm3.618-6.048-2.403 2.403-7.292-7.293 9.722-9.722 7.293 7.292-2.408 2.407-.024.023-4.858 4.859-.03.03Zm3.069 1.792-.006.005-.605.606a.854.854 0 0 1-.608.251.854.854 0 0 1-.607-.252.854.854 0 0 1-.01-1.204l4.88-4.881a.862.862 0 0 1 1.207.008.854.854 0 0 1 .252.609c0 .23-.09.445-.252.607l-.602.602-.012.012-3.637 3.637Zm1.78.651 2.51-2.511 10.635 9.275-3.88 3.88-9.266-10.644Zm10.396 11.944 4.047-4.047 1.298 1.132-4.214 4.215-1.131-1.3Zm11.062 5.587c-.554.99-1.492 1.644-2.572 1.793a3.415 3.415 0 0 1-3.094-1.178l-.008-.01-3.127-3.592 4.383-4.383 3.587 3.13.009.007c.268.229.506.503.709.816.65 1.004.695 2.377.113 3.417Z"></path>
    <path d="M16.198 8.906a.86.86 0 0 0-1.215 0l-3.646 3.646a.86.86 0 1 0 1.215 1.215l3.646-3.646a.86.86 0 0 0 0-1.215Z"></path>
  </symbol>
  <symbol xmlns="http://www.w3.org/2000/svg" viewBox="0 0 16 10" id="crimes-arrow-right">
    <path fill-rule="evenodd" clip-rule="evenodd" d="M10.86.695a.667.667 0 0 1 .943 0l3.999 3.998a.667.667 0 0 1 0 .944l-3.999 3.998a.667.667 0 1 1-.943-.944l3.528-3.526-3.528-3.527a.667.667 0 0 1 0-.943Z"></path>
    <path fill-rule="evenodd" clip-rule="evenodd" d="M0 5.165A.666.666 0 0 1 .666 4.5H14.66a.666.666 0 0 1 0 1.333H.666A.666.666 0 0 1 0 5.165Z"></path>
  </symbol>
</svg>